<svg
    xmlns="http://www.w3.org/2000/svg"
    viewBox="0 0 24 24"
    fill="#8A2BE2"
    stroke="#8A2BE2"
    stroke-width="1"
    stroke-linecap="round"
    stroke-linejoin="round"
>
    <path d="M20.5 3.5A10 10 0 1 0 4 17.5L3 21l3.6-.9A10 10 0 0 0 20.5 3.5zM12 4a8 8 0 0 1 8 8c0 4.4-3.6 8-8 8a8 8 0 0 1-4.3-1.2l-2.7.7.7-2.7A8 8 0 0 1 4 12c0-4.4 3.6-8 8-8zm1.8 11.2l-.2.1c-.6.3-1.2.4-1.8.3-1-.2-2-.8-2.9-1.7-.9-.9-1.5-1.9-1.7-2.9-.1-.6 0-1.2.3-1.8l.1-.2c.1-.2.4-.3.7-.2l1.6.6c.2.1.3.4.3.7-.1.4-.2.8-.3 1.2-.1.3 0 .5.1.7l.2.2c.3.4.6.8 1 1.1.3.3.7.6 1.1 1l.2.2c.2.2.5.2.7.1.4-.1.8-.2 1.2-.3.3-.1.5 0 .7.3l.6 1.6c.1.3 0 .5-.2.7z" />
</svg>

